<?xml version="1.0" encoding="UTF-8" standalone="no"?>
<!-- Created with Inkscape (http://www.inkscape.org/) -->

<svg
   xmlns:dc="http://purl.org/dc/elements/1.1/"
   xmlns:cc="http://creativecommons.org/ns#"
   xmlns:rdf="http://www.w3.org/1999/02/22-rdf-syntax-ns#"
   xmlns:svg="http://www.w3.org/2000/svg"
   xmlns="http://www.w3.org/2000/svg"
   xmlns:xlink="http://www.w3.org/1999/xlink"
   xmlns:sodipodi="http://sodipodi.sourceforge.net/DTD/sodipodi-0.dtd"
   xmlns:inkscape="http://www.inkscape.org/namespaces/inkscape"
   width="1052.3622"
   height="744.09448"
   id="svg2"
   version="1.1"
   inkscape:version="0.47 r22583"
   sodipodi:docname="logo.svg">
  <defs
     id="defs4">
    <inkscape:perspective
       sodipodi:type="inkscape:persp3d"
       inkscape:vp_x="0 : 526.18109 : 1"
       inkscape:vp_y="0 : 1000 : 0"
       inkscape:vp_z="744.09448 : 526.18109 : 1"
       inkscape:persp3d-origin="372.04724 : 350.78739 : 1"
       id="perspective10" />
    <inkscape:perspective
       id="perspective2884"
       inkscape:persp3d-origin="0.5 : 0.33333333 : 1"
       inkscape:vp_z="1 : 0.5 : 1"
       inkscape:vp_y="0 : 1000 : 0"
       inkscape:vp_x="0 : 0.5 : 1"
       sodipodi:type="inkscape:persp3d" />
    <inkscape:perspective
       id="perspective2921"
       inkscape:persp3d-origin="0.5 : 0.33333333 : 1"
       inkscape:vp_z="1 : 0.5 : 1"
       inkscape:vp_y="0 : 1000 : 0"
       inkscape:vp_x="0 : 0.5 : 1"
       sodipodi:type="inkscape:persp3d" />
    <inkscape:perspective
       id="perspective2935"
       inkscape:persp3d-origin="0.5 : 0.33333333 : 1"
       inkscape:vp_z="1 : 0.5 : 1"
       inkscape:vp_y="0 : 1000 : 0"
       inkscape:vp_x="0 : 0.5 : 1"
       sodipodi:type="inkscape:persp3d" />
    <inkscape:perspective
       id="perspective3060"
       inkscape:persp3d-origin="0.5 : 0.33333333 : 1"
       inkscape:vp_z="1 : 0.5 : 1"
       inkscape:vp_y="0 : 1000 : 0"
       inkscape:vp_x="0 : 0.5 : 1"
       sodipodi:type="inkscape:persp3d" />
    <inkscape:perspective
       id="perspective3905"
       inkscape:persp3d-origin="0.5 : 0.33333333 : 1"
       inkscape:vp_z="1 : 0.5 : 1"
       inkscape:vp_y="0 : 1000 : 0"
       inkscape:vp_x="0 : 0.5 : 1"
       sodipodi:type="inkscape:persp3d" />
    <inkscape:perspective
       id="perspective3927"
       inkscape:persp3d-origin="0.5 : 0.33333333 : 1"
       inkscape:vp_z="1 : 0.5 : 1"
       inkscape:vp_y="0 : 1000 : 0"
       inkscape:vp_x="0 : 0.5 : 1"
       sodipodi:type="inkscape:persp3d" />
  </defs>
  <sodipodi:namedview
     id="base"
     pagecolor="#ffffff"
     bordercolor="#666666"
     borderopacity="1.0"
     inkscape:pageopacity="0.0"
     inkscape:pageshadow="2"
     inkscape:zoom="0.24748737"
     inkscape:cx="260.48863"
     inkscape:cy="249.95397"
     inkscape:document-units="px"
     inkscape:current-layer="layer1"
     showgrid="false"
     inkscape:window-width="1366"
     inkscape:window-height="713"
     inkscape:window-x="-4"
     inkscape:window-y="-3"
     inkscape:window-maximized="1" />
  <metadata
     id="metadata7">
    <rdf:RDF>
      <cc:Work
         rdf:about="">
        <dc:format>image/svg+xml</dc:format>
        <dc:type
           rdf:resource="http://purl.org/dc/dcmitype/StillImage" />
        <dc:title></dc:title>
      </cc:Work>
    </rdf:RDF>
  </metadata>
  <g
     inkscape:groupmode="layer"
     id="layer4"
     inkscape:label="orig"
     style="display:none"
     sodipodi:insensitive="true"
     transform="translate(0,-308.2677)">
    <image
       style="fill:#000000;fill-opacity:0;display:inline"
       y="-287.63782"
       x="-1350"
       id="image2886"
       height="1640"
       width="3450"
       xlink:href="file:///home/nick/gitworking/noofac/ETC/src/graphics/twinslogo7-large.jpg" />
  </g>
  <g
     inkscape:groupmode="layer"
     id="layer2"
     inkscape:label="map"
     style="display:inline"
     transform="translate(0,-308.2677)" />
  <g
     inkscape:label="text"
     inkscape:groupmode="layer"
     id="layer1"
     style="display:inline"
     transform="translate(0,-308.2677)">
    <g
       id="g3989"
       transform="matrix(0.29648025,0,0,0.29648025,434.20963,387.49419)">
      <path
         style="fill:#cccccc;fill-opacity:1;stroke:none;display:inline"
         d="m -796.0002,151.30611 c -9.50365,31.2182 -7.90657,85.81648 -53.88953,82.71787 -40.95143,10.52003 -54.36393,54.31158 -80.18446,82.53716 -25.48167,29.49841 -41.71119,74.09118 -83.49881,83.21919 -38.7907,4.58261 -69.8608,29.30941 -107.5924,38.06188 -48.1894,12.70334 -82.1142,50.73876 -119.3019,81.15943 -35.2286,-11.43592 -89.5106,25.9122 -38.4108,51.83182 42.5215,15.17463 88.6741,-10.94994 132.1095,-25.1932 29.0907,-14.03251 111.0516,0.52243 104.9865,46.23711 -34.3039,18.48319 -99.8088,29.36957 -83.8361,82.67527 1.1656,45.93753 -5.3036,104.08883 54.1225,114.81936 20.6705,36.68604 1.8343,81.61354 -8.3745,119.31284 -15.0132,21.4218 -41.7321,47.65785 3.9518,29.05903 64.0383,-17.60443 80.50981,-31.95893 142.53745,-55.08731 42.49897,-9.04659 81.86275,-80.96183 140.43552,-60.60789 36.15783,-8.86645 39.65277,14.31557 29.12832,53.18615 -5.32482,45.75256 49.18894,90.95699 98.99796,60.65073 60.18896,-24.44475 58.86055,75.37555 113.61362,55.29875 42.29488,-10.73437 69.63084,-61.88528 95.73218,-91.29138 24.45981,-31.55546 4.57461,-98.16555 50.42495,-102.80753 46.25049,-24.84016 89.79882,-57.40381 51.49501,-96.25629 -16.94827,-45.28164 -52.4707,-78.54402 -73.06304,-119.62271 3.78187,-25.77441 64.61671,-67.04266 5.05635,-62.51333 -42.43034,5.36713 -103.463,-6.58253 -89.13243,-61.94993 -20.02793,-34.99356 -13.02645,-70.71764 19.0517,-94.35949 26.33825,-38.9286 -26.0214,-75.68889 -6.15,-117.14661 12.90734,-37.57426 61.48372,-102.90968 -10.82979,-104.06263 -41.10018,-13.12909 -58.65825,32.64792 -95.17972,38.19254 -39.06742,14.88581 -75.82764,-5.83849 -110.5816,-21.23561 -18.41368,-3.60468 -55.21511,-12.14903 -50.15686,-10.77848 -10.09509,-3.04284 -23.65734,-5.36562 -31.46142,3.95326 z"
         id="path2994"
         sodipodi:nodetypes="ccccccccccccccccccccccccccccccc" />
      <path
         id="path3846"
         d="m -334.46505,799.47222 c -4.69331,-2.01509 -12.39938,-8.57874 -17.1246,-14.58587 l -8.59131,-10.9221 9.71123,-11.54111 c 12.67127,-15.05895 16.49553,-33.00132 9.67513,-45.39306 -2.93711,-5.33636 -10.58506,-19.49272 -16.99544,-31.45862 -6.41038,-11.9659 -16.77895,-29.23115 -23.04128,-38.36725 l -11.38605,-16.61107 9.43323,-8.20207 c 5.18826,-4.51114 13.40334,-20.1323 18.25571,-34.71369 5.05272,-15.18345 17.41748,-38.155 28.93755,-53.76093 30.19923,-40.91009 22.9964,-54.30229 -21.29378,-39.59146 -27.21474,9.03929 -65.96039,6.24783 -86.10731,-6.20365 -28.8819,-17.84999 -44.27171,-55.14778 -26.64708,-64.5802 4.29857,-2.30053 16.17442,-4.18277 26.39078,-4.18277 12.21339,0 19.32027,-1.94164 20.75066,-5.66918 3.3609,-8.75836 -13.59748,-38.77754 -21.90614,-38.77754 -9.34513,0 -16.88844,-7.72151 -16.88844,-17.28742 0,-4.17448 7.08676,-14.60626 15.74837,-23.18173 18.04581,-17.86636 22.08647,-35.22985 20.48084,-88.01015 -1.26362,-41.53772 -1.09152,-42.55625 8.16752,-48.33862 22.19044,-13.85816 168.27634,-34.55705 195.56106,-27.70902 7.69017,1.93011 13.77395,9.09361 22.64113,26.65939 6.66892,13.21105 15.31567,25.61078 19.215,27.55496 9.955,4.96346 82.55321,5.91606 94.840499,1.24444 5.594734,-2.12711 15.413659,-8.81772 21.819845,-14.86802 15.023554,-14.18888 61.7138148,-35.78871 91.597238,-42.37465 l 23.380991,-5.15289 15.004806,14.25736 c 8.252623,7.84155 32.278374,23.84051 53.390561,35.55325 55.30193,30.68073 59.14702,33.94746 66.6908,56.65969 4.95791,14.92687 9.16741,20.77152 16.23844,22.54623 5.25001,1.31767 11.31452,1.30245 13.47669,-0.0339 8.27335,-5.11322 24.19198,6.1988 64.15762,45.59142 39.31695,38.75323 41.13317,41.28254 36.67298,51.07163 -3.30203,7.24711 -9.74418,11.57116 -21.73917,14.59153 -23.16466,5.83293 -42.13035,25.90221 -45.05026,47.67167 -1.79803,13.40527 -0.0412,20.88109 8.6661,36.87951 6.37927,11.72085 10.39055,24.67663 9.64518,31.15236 l -1.27611,11.08649 -30.83163,-1.24595 c -18.83636,-0.76121 -40.28569,1.20383 -55.1315,5.05076 -31.2816,8.10588 -51.15707,7.97748 -63.9629,-0.41321 -12.98054,-8.50517 -49.67013,-8.37144 -73.632564,0.26838 -9.618107,3.4679 -37.2050903,18.18538 -61.304421,32.70552 -46.625651,28.0925 -73.138103,39.52646 -82.934877,35.76707 -10.403048,-3.992 -23.882728,8.80207 -31.452438,29.85272 -8.0366,22.34902 -16.04807,30.96182 -43.19648,46.43861 -21.89673,12.4829 -62.60678,54.81593 -77.36698,80.45134 -19.36436,33.63189 -56.18922,51.4998 -82.6892,40.12184 l 0,0 z"
         style="fill:#cccccc;fill-opacity:1;stroke:none;display:inline" />
      <path
         id="path3848"
         d="m 223.59123,1237.2661 c -31.29986,-11.2463 -42.22502,-19.1397 -46.9645,-33.9315 -2.50946,-7.832 -15.28607,-41.7522 -28.39243,-75.3782 -20.29374,-52.0661 -25.01904,-69.3554 -31.84447,-116.5152 -13.95017,-96.38753 -19.53026,-111.25022 -41.76808,-111.25022 -8.52248,0 -16.23281,3.10888 -21.12005,8.51578 -8.09699,8.95796 -59.76846,48.8294 -80.4283,62.06119 -6.66701,4.26996 -21.2132,9.85182 -32.32488,12.40415 -34.66743,7.96307 -47.44285,-1.12968 -58.30253,-41.49614 -6.54895,-24.34314 -13.67722,-26.90376 -65.7258,-23.61029 -40.51496,2.56368 -44.97561,2.10435 -59.64851,-6.1423 -21.05204,-11.83191 -26.85475,-26.05466 -20.66272,-50.64541 9.37228,-37.22073 35.32064,-76.24182 61.88709,-93.06571 9.45646,-5.98855 30.38887,-15.09076 46.51648,-20.22714 24.0045,-7.64505 37.92887,-16.06833 76.77159,-46.44152 26.09677,-20.40645 56.7427,-45.51606 68.10207,-55.79914 14.54954,-13.17099 27.6852,-20.76315 44.44671,-25.68938 40.45284,-11.88914 107.36837,-31.32736 134.91009,-39.1899 19.75002,-5.63818 40.43358,-7.55554 83.39505,-7.73069 48.89344,-0.19933 58.4336,-1.28769 66.16499,-7.54816 12.33663,-9.98961 11.45048,-25.6901 -2.58284,-45.76222 -20.59358,-29.45541 -24.79812,-37.55494 -27.50658,-52.98857 -3.08654,-17.58799 -0.56196,-18.45993 26.15544,-9.03347 10.44886,3.68657 22.93167,12.64843 31.40318,22.54549 23.71878,27.71005 55.53261,43.4314 106.44462,52.60146 26.87903,4.84134 26.91374,4.8354 57.99807,-9.92649 40.08891,-19.03813 42.38604,-18.92235 42.38604,2.1363 0,23.57366 13.27732,48.53131 42.39291,79.68673 l 24.9003,26.64485 -5.24827,25.2908 c -9.08818,43.79495 1.81759,55.57378 50.22972,54.25089 42.3664,-1.15768 61.47158,10.53838 61.47158,37.63248 0,9.36319 3.99778,12.50268 33.5632,26.35751 38.4189,18.00373 46.6688,25.52859 49.9142,45.52789 2.0636,12.7163 1.0403,14.96083 -9.264,20.32029 -16.0131,8.32863 -26.1928,20.48831 -43.6364,52.1239 -17.2522,31.28827 -32.47504,45.62649 -54.8338,51.64704 -8.69446,2.34121 -16.9013,6.02556 -18.23745,8.18749 -4.2521,6.87999 -21.68385,4.28083 -26.05398,-3.88476 -2.30052,-4.29856 -4.18276,-20.72142 -4.18276,-36.49528 0,-48.44514 -16.76877,-72.40799 -47.21271,-67.46762 -19.05939,3.09292 -39.07476,22.38205 -54.30471,52.33432 -26.84048,52.78654 -62.14955,75.009 -136.87858,86.14739 -21.11218,3.14679 -43.42928,7.75579 -49.59356,10.24218 -14.4493,5.82822 -49.23713,58.24538 -70.67855,106.49628 -47.58029,107.0726 -45.6909,100.4652 -34.28123,119.8847 6.81078,11.5921 6.78233,12.2472 -0.77228,17.796 -9.53854,7.0061 -15.67829,6.9028 -36.60336,-0.6158 l 0,0 z"
         style="fill:#cccccc;fill-opacity:1;stroke:none;display:inline" />
      <path
         id="path3850"
         d="m 1035.4604,780.63067 c -10.8238,-5.75508 -24.5578,-13.93731 -30.5199,-18.18274 -13.65305,-9.72179 -23.15342,-9.6729 -64.89514,0.33416 -37.42543,8.97217 -78.88665,10.14439 -100.12115,2.83073 -8.38495,-2.88799 -17.64611,-10.49609 -23.08534,-18.96485 -22.75142,-35.4233 -19.66343,-33.55016 -50.32774,-30.52859 -30.28344,2.98391 -32.57032,1.08967 -21.68119,-17.95889 7.88424,-13.79202 7.48717,-26.87236 -0.9136,-30.09604 -3.83599,-1.472 -17.92762,-1.53394 -31.31473,-0.13779 -29.79881,3.10812 -57.2554,-6.01756 -52.48987,-17.4459 1.57531,-3.77777 3.79606,-15.62572 4.93501,-26.32882 2.56466,-24.1009 -3.91006,-37.32036 -23.12097,-47.20604 -29.99438,-15.43461 -44.57811,-39.02171 -44.57811,-72.09867 0,-38.11786 -16.87586,-44.54765 -76.37007,-29.0974 -24.90376,6.46732 -35.19221,7.16238 -61.53985,4.15734 -47.29102,-5.39365 -63.71095,-11.64079 -85.30592,-32.45559 l -19.22077,-18.52632 0,-32.31935 0,-32.31934 14.27922,-6.80928 c 17.66295,-8.42286 28.58454,-8.68129 31.62868,-0.74836 3.13409,8.16732 70.04213,8.34438 97.81054,0.259 10.95945,-3.19115 25.25888,-6.37313 31.77651,-7.07107 9.96589,-1.0672 14.14223,-5.47999 26.26397,-27.75107 24.09446,-44.26833 26.31047,-46.0799 69.12161,-56.50638 24.29864,-5.91784 51.39322,-9.42565 74.36516,-9.6277 35.77154,-0.31464 36.21019,-0.44113 43.13871,-12.43971 6.90781,-11.96272 17.63236,-50.97115 21.74691,-79.10006 3.39294,-23.19551 10.03235,-29.02862 34.46184,-30.27672 25.17631,-1.28626 31.41158,-7.26847 41.74544,-40.051237 8.7701,-27.82194 8.56848,-29.75863 -5.38941,-51.76793 l -12.00525,-18.930338 11.39488,-5.892527 c 6.26719,-3.240892 20.30637,-8.0624034 31.19816,-10.7144694 25.89118,-6.30429399 32.52246,-12.600732 40.74591,-38.6885276 12.86644,-40.817082 30.0954,-47.937356 83.46236,-34.492792 52.0621,13.115838 62.9152,13.635797 95.5948,4.579823 33.1392,-9.183341 50.7499,-8.386899 109.0594,4.932202 18.8638,4.308869 44.3196,9.435155 56.5685,11.391748 12.249,1.956592 33.1805,7.387251 46.5145,12.068134 20.6884,7.262621 26.271,11.494299 38.0683,28.8562306 7.6036,11.190046 19.62,25.2212474 26.7032,31.1804444 17.8391,15.008392 35.138,42.697562 33.5367,53.679942 -0.9126,6.25854 -7.392,12.15991 -20.5264,18.69506 -16.5154,8.217427 -19.1929,11.242227 -19.1929,21.682597 0,13.55797 6.6223,27.81678 27.5764,59.37593 18.6853,28.14207 26.8957,27.29623 42.0343,-4.33039 13.4308,-28.05859 20.1377,-31.57773 34.6762,-18.19446 32.6562,30.06135 46.7382,30.92546 68.0378,4.17499 8.4052,-10.5561 15.772,-19.92249 16.3707,-20.81422 0.5988,-0.89173 9.7535,6.4683 20.3439,16.35562 21.8403,20.39048 66.2641,45.81272 108.5156,62.09973 23.5161,9.06496 30.3858,13.85113 38.3295,26.70421 8.26,13.36502 11.7588,15.66366 23.8767,15.68638 18.6959,0.0352 30.208,8.24099 60.3613,43.02602 13.7835,15.90078 30.2697,31.06803 36.6358,33.70497 20.1694,8.35441 18.5412,15.40091 -9.9503,43.06373 -14.5098,14.08775 -26.3814,29.02799 -26.3814,33.20057 0,4.17257 2.7274,15.31678 6.0609,24.76494 9.1048,25.80588 8.2487,28.28427 -9.771,28.28427 -8.7076,0 -18.7925,1.13606 -22.4108,2.52453 -7.8335,3.00601 -23.7303,33.1383 -30.2435,57.3264 -5.6385,20.94002 -22.7712,33.06456 -46.6712,33.02851 -17.5165,-0.0283 -52.6818,-14.68382 -73.7118,-30.72415 -11.9756,-9.13444 -13.1613,-11.99427 -13.1613,-31.7457 0,-18.60988 -1.687,-23.39392 -11.8242,-33.53108 -14.6538,-14.6538 -42.3375,-22.77001 -68.9459,-20.21328 -15.2918,1.46933 -26.3777,6.18193 -45.4863,19.33602 -50.4029,34.69676 -61.6324,50.23711 -58.6594,81.17784 1.5978,16.6282 5.7676,24.0841 30.3912,54.34172 31.532,38.74662 35.5964,49.31241 41.7541,108.54117 4.4269,42.58197 0.6421,51.85461 -24.2041,59.29871 -31.5274,9.44585 -61.1504,-4.56561 -69.6532,-32.94532 -6.5397,-21.82746 -12.9905,-26.62189 -25.1233,-18.67219 -10.5843,6.93506 -34.9292,41.61057 -34.9292,49.75115 0,7.05757 -24.6328,11.14998 -49.4333,8.21274 -23.4572,-2.77816 -56.1126,-18.40142 -73.9976,-35.40257 -19.1734,-18.22582 -29.0032,-15.7383 -63.0379,15.95232 -37.4152,34.83819 -41.6817,36.99183 -73.2831,36.99183 -20.1357,0 -30.3241,-2.33753 -45.6076,-10.46385 z"
         style="fill:#cccccc;fill-opacity:1;stroke:none;display:inline" />
      <text
         transform="matrix(1.0601803,0,0,1,51.887737,-20)"
         sodipodi:linespacing="100%"
         id="text2890"
         style="font-size:324.04122925px;font-style:normal;font-variant:normal;font-weight:bold;font-stretch:normal;text-align:start;line-height:100%;writing-mode:lr-tb;text-anchor:start;fill:#0202e7;fill-opacity:1;stroke:none;font-family:Comic Sans MS;-inkscape-font-specification:Comic Sans MS Bold"
         xml:space="preserve"><textPath
           id="textPath2909"
           xlink:href="#path2904"><tspan
   style="fill:#0202e7;fill-opacity:1"
   id="tspan2892">Edinburgh</tspan></textPath></text>
      <text
         transform="scale(1.0209995,0.97943241)"
         sodipodi:linespacing="125%"
         id="text2894"
         y="862.10284"
         x="-963.43488"
         style="font-size:557.82385254px;font-style:normal;font-variant:normal;font-weight:bold;font-stretch:normal;text-align:start;line-height:125%;writing-mode:lr-tb;text-anchor:start;fill:#0202e7;fill-opacity:1;stroke:none;font-family:Comic Sans MS;-inkscape-font-specification:Comic Sans MS Bold"
         xml:space="preserve"><tspan
           y="862.10284"
           x="-963.43488"
           id="tspan2896"
           sodipodi:role="line">Twins Club</tspan></text>
      <text
         transform="scale(0.82600584,1.2106452)"
         sodipodi:linespacing="125%"
         id="text2898"
         y="911.41919"
         x="-963.50555"
         style="font-size:151.78057861px;font-style:normal;font-variant:normal;font-weight:bold;font-stretch:normal;text-align:start;line-height:125%;writing-mode:lr-tb;text-anchor:start;fill:#0202e7;fill-opacity:1;stroke:none;font-family:Comic Sans MS;-inkscape-font-specification:Comic Sans MS Bold"
         xml:space="preserve"><tspan
           y="911.41919"
           x="-963.50555"
           id="tspan2900"
           sodipodi:role="line">Edinburgh &amp; Lothians Twins &amp; Multiples Club</tspan></text>
      <path
         sodipodi:nodetypes="cc"
         id="path2904"
         d="m -1147.1696,465.09318 c 336.47195,-174.95501 712.75896,-201.7512 1571.73527,-47.3666"
         style="color:#000000;fill:none;stroke:none;stroke-width:0.36582074;marker:none;visibility:visible;display:inline;overflow:visible;enable-background:accumulate" />
    </g>
  </g>
</svg>
